<svg xmlns="http://www.w3.org/2000/svg" viewBox="0 0 340.5 140.25"><defs><style>.cls-1{fill:#fff;}</style></defs><title>Asset 1</title><g id="Layer_2" data-name="Layer 2"><g id="Layer_1-2" data-name="Layer 1"><path class="cls-1" d="M.75,140.5Q.75,70.38.75.25h340.5q0,70.12,0,140.25Zm259.7-64.23-.38-.79H235.52c1,1.1,1.38,1.66,1.88,2.15.83.81,2.12,1.4,2.52,2.38,3.3,8.09,6.38,16.26,9.63,24.36,3.81,9.48,7.71,18.93,11.62,28.36a7.53,7.53,0,0,0,1.56,1.78c.63-.65,1.53-1.19,1.84-2,2.91-7.17,5.67-14.4,8.59-21.56,1.43-3.5,3.1-6.91,5.08-11.26,5.64,12.31,8.1,24.48,14.72,35.87a46.49,46.49,0,0,0,2.33-4.47c4.32-11.75,8.4-23.59,12.94-35.25,2.62-6.75,3.11-14.65,9.67-19.48.09-.06-.07-.46-.19-1.13-4.12,0-8.32,0-12.52,0-.47,0-.92.55-1.38.85.41.48.81,1.38,1.23,1.39,4.77.14,4.09,4.09,3.4,6.26-3,9.42-6.52,18.64-10.16,28.75-3.9-10.38-7.6-19.83-11-29.39-1.47-4.18-.77-4.86,3.45-5.67a6.58,6.58,0,0,0,1.92-1.17l-.35-.82H265.66a3.12,3.12,0,0,0,1.41,2.13c1.43,1.15,3.35,2,4.18,3.53a60.91,60.91,0,0,1,3.82,9.34,6.73,6.73,0,0,1,.4,4c-2.06,6.18-4.37,12.29-6.59,18.42l-1.19.05c-4-10.47-8-20.91-11.81-31.44-.69-1.92.29-3.62,2.71-4C259.26,77.37,259.84,76.69,260.45,76.27ZM108.74,102.39l2.88-1.33c9.66-4.52,11.19-13.83,3.55-21.24-4.21-4.08-9.67-4.25-14.88-4.48C91.55,75,82.79,75.22,74,75.25c-.91,0-1.83.22-3.89.49,1.44,1,2,1.81,2.56,1.76,5-.43,5.34,2.74,5.33,6.46,0,12.12,0,24.24,0,36.37,0,8.45,0,8.45-7.17,12.3a20.77,20.77,0,0,0,3.1.55c9.74.07,19.51.48,29.22-.06a28.78,28.78,0,0,0,12.22-3.94c8.55-4.92,9.46-16.19,2-22.2C114.9,105,111.66,103.9,108.74,102.39ZM125,131.77l.29,1H152l.08-.92c-1.15-.36-2.52-.45-3.4-1.16-1.49-1.19-3.71-2.71-3.81-4.21-.37-5.84-.06-11.72.12-17.59a2.28,2.28,0,0,1,1.28-1.76,2.56,2.56,0,0,1,1.89,1.17c4.84,7.41,9.57,14.89,14.43,22.28.71,1.08,1.88,2.58,2.89,2.63,5.5.26,11,.12,16.54.12-9.31-7.73-13.18-18.34-19.92-27.36,1.19-.37,1.65-.5,2.1-.66,10.67-3.79,12.5-18,4.92-24.88a17.52,17.52,0,0,0-12.49-4.57c-10.32,0-20.63-.28-31-.41-.14,0-.28.34-.43.52l-.94.94a5.92,5.92,0,0,0,2,.59c4.28-.41,5,2.31,5.05,5.62.08,13.85.07,27.71.19,41.56C131.66,129.11,129.43,131.3,125,131.77ZM26.4,7.68,26.34,7c-1.12,0-2.25,0-3.37,0-5,.16-9.53,4.58-8.78,9.5a28.29,28.29,0,0,1-.29,8C12.39,36.76,15,48.34,19.76,59.58c3.81,9.06,6.51,18.43,7,28.25a105.3,105.3,0,0,1-5.83,40c-.78,2.28-.45,4.17,1.7,5,4.56,1.76,9.17,3.84,13.94,4.56a33.72,33.72,0,0,0,22.28-4.17c2.28-1.32,2.76-2.61,2-5.4-2.14-8-4.45-16.12-5.25-24.33A89.56,89.56,0,0,1,62.5,58.82c3.61-8.42,6.28-17.08,5.8-26.52-.26-5.21-.87-10.57,1.32-15.66a4.4,4.4,0,0,0-.14-2.56C68.06,8.52,64.1,5.27,58.11,5.55,47.53,6,37,6.94,26.4,7.68Zm157.46,67.8-.37,1.21c.74.31,1.48.9,2.21.88,3.44-.13,4.71,1.74,4.72,4.84q.05,21.75,0,43.49c0,3.23-1.74,5.05-4.93,5.56a15.6,15.6,0,0,0-2.21.75c.72.48,1,.82,1.27.82,14.86,0,29.72.09,44.58-.07.86,0,2.28-1.71,2.46-2.79.85-5.17,1.37-10.4,2-15.6a2.69,2.69,0,0,0-2.06,1.6c-4.55,11.9-11.59,14.2-23.21,13.08-1.28-.12-3.42-1.59-3.46-2.5-.29-6.91-.16-13.83-.16-21.09,7,1.37,9.93,5.32,11.18,11a8.55,8.55,0,0,0,1.28,2.22l.8-.48V88.94l-.9-.67c-2.9,5.64-2.75,14.27-12.38,13.77,0-5.6,0-11.09,0-16.57a18.54,18.54,0,0,1,.25-4.1,3,3,0,0,1,1.59-2c9.32-2.4,17.52,2.1,20.7,11.15a14.28,14.28,0,0,0,2,2.69V75.47ZM73.74,19l-.42,1.11c5.23.3,6.1,3.82,6.23,7.78q.33,10.47.49,20.95c.08,5.19,1,10.9-7.31,11.72l.94.9H89c-.24-.81-.58-1.1-1-1.2-4.44-1.2-5.56-2.56-5.58-6.91s0-8.49,0-12.74q0-4.76,0-9.52l1.29-.32c10.16,10.05,17.36,22.9,29.45,32.57V58.69c0-9.61,0-19.23,0-28.84,0-4.2-1.49-9.24,5-10.43H105.31c1.45,1.56,4.27,3.17,4.44,5,.58,6.35.22,12.78.22,20-6.27-7.81-11.91-14.93-17.68-21.95-1.14-1.39-2.7-3.23-4.2-3.37C83.34,18.74,78.53,19,73.74,19ZM178.12,47.24c-.92-2.79-1.75-5.6-2.78-8.35-.91-2.45-2.31-4.85,1.17-6.89-3.72-.27-7.06-.29-10.4-.26-.81,0-1.63.13-2.54.2,2.62,5.59,2.45,10-.79,16.26C162.51,42.4,157,38,160.91,32H147.84c1,2.19,2.08,4.08,2.82,6.1,2.76,7.6,5.39,15.24,8.14,22.85.25.7,1,1.24,1.8,2.21L167,44.53a10.41,10.41,0,0,1,2.41,4.17c1.54,4.07,3,8.14,4.68,12.17.27.66,1.14,1.08,1.74,1.6A7,7,0,0,0,177,60.85c3.19-9.67,6.34-19.35,9.41-28.76H180C184.72,37.89,179.32,42.31,178.12,47.24Zm-30.34-1.15c-1.1-3.65-1.6-6.71-2.91-9.36A10.39,10.39,0,0,0,131,32c-10.66,5-11.68,20-5.41,27.29,3.35,3.89,8.19,4.36,13.1,2.67,4.37-1.5,6.89-4.59,7.93-9.1-3.1,2.59-5.77,6.42-10.44,3.58-3.65-2.22-4.94-5.77-4.65-10.33Z" transform="translate(-0.75 -0.25)"/><path d="M260.45,76.27c-.62.42-1.19,1.11-1.86,1.22-2.42.4-3.41,2.1-2.71,4,3.81,10.53,7.85,21,11.81,31.44l1.19-.05c2.22-6.13,4.53-12.23,6.59-18.42a6.73,6.73,0,0,0-.4-4,60.91,60.91,0,0,0-3.82-9.34c-.82-1.49-2.74-2.38-4.18-3.53a3.12,3.12,0,0,1-1.41-2.13h26.66l.35.82a6.58,6.58,0,0,1-1.92,1.17c-4.22.81-4.92,1.49-3.45,5.67,3.37,9.56,7.07,19,11,29.39,3.64-10.11,7.2-19.34,10.16-28.75.68-2.17,1.36-6.12-3.4-6.26-.42,0-.82-.91-1.23-1.39.46-.3.92-.84,1.38-.85,4.2-.07,8.4,0,12.52,0,.12.67.28,1.07.19,1.13-6.56,4.83-7,12.73-9.67,19.48-4.53,11.66-8.62,23.5-12.94,35.25a46.49,46.49,0,0,1-2.33,4.47c-6.61-11.39-9.08-23.56-14.72-35.87-2,4.36-3.65,7.76-5.08,11.26-2.92,7.16-5.68,14.39-8.59,21.56-.32.78-1.22,1.32-1.84,2a7.53,7.53,0,0,1-1.56-1.78c-3.92-9.44-7.81-18.88-11.62-28.36-3.25-8.1-6.34-16.28-9.63-24.36-.4-1-1.68-1.57-2.52-2.38-.5-.48-.92-1-1.88-2.15h24.56Z" transform="translate(-0.75 -0.25)"/><path d="M108.74,102.39c2.92,1.51,6.16,2.58,8.65,4.58,7.49,6,6.59,17.28-2,22.2a28.78,28.78,0,0,1-12.22,3.94c-9.71.54-19.48.13-29.22.06a20.77,20.77,0,0,1-3.1-.55c7.17-3.85,7.17-3.85,7.17-12.3C78,108.21,78,96.09,78,84c0-3.72-.33-6.9-5.33-6.46-.52,0-1.12-.74-2.56-1.76,2.06-.27,3-.49,3.89-.49,8.75,0,17.51-.29,26.24.09,5.21.23,10.67.4,14.88,4.48,7.64,7.41,6.11,16.72-3.55,21.24Zm-16.49,2.84c0,7.16-.08,14.36.11,21.55,0,.84,1.43,1.94,2.43,2.39,3.84,1.73,9.47-1.27,11.34-5.91C109.24,115.51,105.35,104.69,92.25,105.23Zm0-3.59c1.82-.38,3.12-.7,4.44-.91,7.27-1.17,11.3-9.85,7.18-16-2.16-3.23-5.08-6-9.51-5.36-.78.1-2,1.22-2,1.89C92.17,87.93,92.23,94.61,92.23,101.65Z" transform="translate(-0.75 -0.25)"/><path d="M125,131.77c4.38-.47,6.62-2.66,6.58-7.05-.12-13.85-.12-27.71-.19-41.56,0-3.31-.77-6-5.05-5.62a5.92,5.92,0,0,1-2-.59l.94-.94c.14-.18.29-.52.43-.52,10.32.13,20.63.36,31,.41a17.52,17.52,0,0,1,12.49,4.57c7.59,6.93,5.76,21.09-4.92,24.88-.45.16-.91.29-2.1.66,6.74,9,10.61,19.63,19.92,27.36-5.51,0-11,.14-16.54-.12-1,0-2.18-1.55-2.89-2.63-4.86-7.4-9.59-14.87-14.43-22.28a2.56,2.56,0,0,0-1.89-1.17,2.28,2.28,0,0,0-1.28,1.76c-.18,5.86-.49,11.75-.12,17.59.09,1.5,2.31,3,3.81,4.21.88.7,2.25.79,3.4,1.16l-.08.92H125.34ZM145,103.65c5.06.14,10.44.83,13.15-4.19a15.31,15.31,0,0,0-.46-16c-2.77-4.33-6.47-5.22-12.69-3.65Z" transform="translate(-0.75 -0.25)"/><path d="M26.4,7.68C37,6.94,47.53,6,58.11,5.55c6-.28,10,3,11.38,8.52a4.4,4.4,0,0,1,.14,2.56C67.44,21.72,68,27.09,68.31,32.3c.48,9.43-2.19,18.1-5.8,26.52a89.56,89.56,0,0,0-6.86,44.62c.8,8.21,3.11,16.32,5.25,24.33.74,2.79.26,4.08-2,5.4a33.72,33.72,0,0,1-22.28,4.17c-4.77-.72-9.37-2.79-13.94-4.56-2.15-.83-2.48-2.72-1.7-5a105.3,105.3,0,0,0,5.83-40c-.52-9.82-3.22-19.19-7-28.25C15,48.34,12.39,36.76,13.9,24.45a28.29,28.29,0,0,0,.29-8C13.44,11.56,17.92,7.14,23,7c1.12,0,2.25,0,3.37,0ZM17.68,24.25c-2.44,13.65,1.91,26.29,7,38.86,6,15,6.58,30.58,4.37,46.31-1,6.81-2.88,13.48-4.37,20.25,6,6.26,25.07,5.47,31.43,1.13a4.19,4.19,0,0,0,1.29-3.52c-1.3-6.63-3.06-13.17-4.31-19.81a76.4,76.4,0,0,1,2.1-37.16c1.62-5.22,3.43-10.38,5.22-15.77-7.23,2.35-10.31.18-10.27-7a40.62,40.62,0,0,1,.61-5.9c.77-5,1.8-10,2.36-15a6.47,6.47,0,0,0-4.62-7.24c-3.11-1-5.38.55-7.27,3.13-5.74,7.85-13.06,7.42-18-1.05-.46-.79-.06-2.09-.06-3.15l1.5-.58c1.53,1.8,2.92,3.73,4.61,5.36,2.65,2.56,4.79,2.46,7.42-.19,1.39-1.41,2.49-3.11,3.92-4.47,5.34-5.07,13.6-2.7,14.75,4.59.69,4.35,0,9-.35,13.41-.36,4.28-1.25,8.51-1.66,12.78a3.13,3.13,0,0,0,1.45,2.57,3.35,3.35,0,0,0,3-.69A8,8,0,0,0,60.12,47,114.72,114.72,0,0,0,61,32.55c-.06-4.16-.72-8.45,2.54-11.64,2.53-2.47,3.34-5.72,2-8.1-1.19-2-4.56-2.86-7-4.07a5,5,0,0,0-2.23,0c-10.86.58-21.61,3.36-32.59,1.53-.36-.06-.89-.12-1.1.08-1.68,1.63-3.89,3.08-4.74,5.1-.54,1.28.86,3.46,1.55,5.17A15.44,15.44,0,0,0,21,23.13Z" transform="translate(-0.75 -0.25)"/><path d="M183.86,75.47h45.38V93.21a14.28,14.28,0,0,1-2-2.69c-3.17-9.05-11.37-13.55-20.7-11.15a3,3,0,0,0-1.59,2,18.54,18.54,0,0,0-.25,4.1c0,5.48,0,11,0,16.57,9.64.49,9.48-8.14,12.38-13.77l.9.67v29.44l-.8.48a8.55,8.55,0,0,1-1.28-2.22c-1.25-5.68-4.23-9.63-11.18-11,0,7.26-.13,14.18.16,21.09,0,.91,2.18,2.38,3.46,2.5,11.61,1.13,18.65-1.17,23.21-13.08a2.69,2.69,0,0,1,2.06-1.6c-.64,5.21-1.15,10.43-2,15.6-.18,1.08-1.6,2.78-2.46,2.79-14.86.16-29.72.1-44.58.07-.27,0-.55-.34-1.27-.82a15.6,15.6,0,0,1,2.21-.75c3.19-.5,4.93-2.33,4.93-5.56q0-21.75,0-43.49c0-3.09-1.28-5-4.72-4.84-.72,0-1.47-.57-2.21-.88Z" transform="translate(-0.75 -0.25)"/><path d="M73.74,19c4.79,0,9.6-.27,14.35.16,1.5.14,3.06,2,4.2,3.37,5.77,7,11.41,14.14,17.68,21.95,0-7.27.36-13.7-.22-20-.17-1.85-3-3.47-4.44-5h12.92c-6.49,1.19-5,6.23-5,10.43-.06,9.61,0,19.23,0,28.84v4.66c-12.1-9.67-19.3-22.52-29.45-32.57l-1.29.32q0,4.76,0,9.52c0,4.25,0,8.49,0,12.74s1.14,5.71,5.58,6.91c.39.11.73.39,1,1.2H73.67l-.94-.9c8.33-.82,7.39-6.53,7.31-11.72q-.17-10.48-.49-20.95c-.13-4-1-7.48-6.23-7.78Z" transform="translate(-0.75 -0.25)"/><path d="M178.12,47.24c1.2-4.94,6.6-9.35,1.88-15.15h6.4c-3.07,9.4-6.21,19.09-9.41,28.76a7,7,0,0,1-1.12,1.63c-.59-.53-1.47-.94-1.74-1.6-1.64-4-3.14-8.1-4.68-12.17A10.41,10.41,0,0,0,167,44.53l-6.44,18.6c-.81-1-1.55-1.51-1.8-2.21-2.75-7.6-5.38-15.25-8.14-22.85-.73-2-1.79-3.9-2.82-6.1h13.07c-3.89,6,1.6,10.43,1.88,16.23,3.24-6.25,3.41-10.67.79-16.26.91-.08,1.73-.2,2.54-.2,3.34,0,6.68,0,10.4.26-3.49,2-2.09,4.45-1.17,6.89C176.37,41.64,177.21,44.46,178.12,47.24Z" transform="translate(-0.75 -0.25)"/><path d="M147.78,46.09H131.5c-.3,4.56,1,8.1,4.65,10.33,4.67,2.84,7.34-1,10.44-3.58-1,4.52-3.56,7.6-7.93,9.1-4.91,1.69-9.75,1.21-13.1-2.67C119.3,52,120.32,37,131,32a10.39,10.39,0,0,1,13.9,4.75C146.19,39.38,146.69,42.44,147.78,46.09Zm-17.14-2.75c7.91.82,9.25-.47,7.62-6.68a5.6,5.6,0,0,0-2.78-3.09c-.52-.26-2.39,1-2.74,1.88A69.56,69.56,0,0,0,130.64,43.35Z" transform="translate(-0.75 -0.25)"/><path class="cls-1" d="M92.25,105.23c13.1-.54,17,10.28,13.88,18-1.86,4.63-7.49,7.64-11.34,5.91-1-.45-2.41-1.56-2.43-2.39C92.16,119.59,92.25,112.4,92.25,105.23Z" transform="translate(-0.75 -0.25)"/><path class="cls-1" d="M92.23,101.65c0-7-.06-13.72.09-20.39,0-.67,1.25-1.79,2-1.89,4.43-.6,7.35,2.13,9.51,5.36,4.12,6.17.09,14.85-7.18,16C95.35,100.95,94.05,101.27,92.23,101.65Z" transform="translate(-0.75 -0.25)"/><path class="cls-1" d="M145,103.65V79.76c6.22-1.57,9.91-.68,12.69,3.65a15.31,15.31,0,0,1,.46,16C155.43,104.47,150,103.78,145,103.65Z" transform="translate(-0.75 -0.25)"/><path class="cls-1" d="M17.68,24.25,21,23.13a15.44,15.44,0,0,1-1.65-2.55c-.69-1.71-2.09-3.89-1.55-5.17.85-2,3.06-3.46,4.74-5.1.2-.2.74-.14,1.1-.08,11,1.83,21.73-.95,32.59-1.53a5,5,0,0,1,2.23,0c2.47,1.21,5.85,2,7,4.07,1.39,2.38.58,5.63-2,8.1-3.26,3.19-2.59,7.48-2.54,11.64A114.72,114.72,0,0,1,60.12,47a8,8,0,0,1-2.38,4.1,3.35,3.35,0,0,1-3,.69,3.13,3.13,0,0,1-1.45-2.57c.42-4.27,1.3-8.5,1.66-12.78.38-4.46,1-9.06.35-13.41-1.15-7.29-9.41-9.66-14.75-4.59-1.43,1.36-2.53,3.07-3.92,4.47-2.62,2.64-4.77,2.74-7.42.19-1.69-1.63-3.08-3.57-4.61-5.36l-1.5.58c0,1.06-.4,2.36.06,3.15,4.93,8.47,12.25,8.9,18,1.05,1.89-2.58,4.16-4.16,7.27-3.13a6.47,6.47,0,0,1,4.62,7.24c-.56,5-1.59,10-2.36,15a40.62,40.62,0,0,0-.61,5.9c0,7.18,3,9.35,10.27,7-1.79,5.39-3.6,10.55-5.22,15.77a76.4,76.4,0,0,0-2.1,37.16c1.24,6.64,3,13.18,4.31,19.81a4.19,4.19,0,0,1-1.29,3.52c-6.35,4.34-25.46,5.13-31.43-1.13,1.49-6.77,3.41-13.45,4.37-20.25,2.22-15.73,1.64-31.34-4.37-46.31C19.59,50.54,15.24,37.9,17.68,24.25Z" transform="translate(-0.75 -0.25)"/><path class="cls-1" d="M130.64,43.35a69.56,69.56,0,0,1,2.09-7.89c.35-.91,2.23-2.14,2.74-1.88a5.6,5.6,0,0,1,2.78,3.09C139.89,42.88,138.55,44.17,130.64,43.35Z" transform="translate(-0.75 -0.25)"/></g></g></svg>