<?xml version="1.0" standalone="no"?>
<!DOCTYPE svg PUBLIC "-//W3C//DTD SVG 20010904//EN"
 "http://www.w3.org/TR/2001/REC-SVG-20010904/DTD/svg10.dtd">
<svg version="1.0" xmlns="http://www.w3.org/2000/svg"
 width="2112.000000pt" height="2112.000000pt" viewBox="0 0 2112.000000 2112.000000"
 preserveAspectRatio="xMidYMid meet">
<metadata>
Created by potrace 1.11, written by Peter Selinger 2001-2013
</metadata>
<g transform="translate(0.000000,2112.000000) scale(0.100000,-0.100000)"
fill="#000000" stroke="none">
<path d="M13058 21115 c-1 -2 -70 -6 -153 -10 -82 -4 -184 -8 -225 -10 -41 -3
-120 -7 -175 -10 -55 -2 -138 -7 -185 -10 -47 -3 -121 -7 -165 -10 -44 -2
-116 -7 -160 -10 -44 -3 -120 -8 -170 -10 -49 -3 -110 -7 -135 -9 -42 -4 -104
-8 -315 -22 -44 -2 -106 -6 -137 -8 -31 -2 -62 -7 -69 -12 -8 -5 -10 -3 -4 6
5 8 4 11 -2 7 -6 -4 -46 -9 -89 -12 -87 -6 -152 -11 -259 -20 -38 -3 -101 -8
-140 -10 -38 -3 -108 -8 -155 -11 -47 -4 -106 -7 -132 -8 -27 -1 -48 -3 -48
-6 0 -3 -30 -6 -68 -7 -100 -4 -176 -9 -402 -28 -154 -13 -240 -19 -287 -19
-29 -1 -53 -3 -53 -6 0 -3 -21 -5 -48 -6 -56 -1 -176 -10 -422 -30 -30 -2 -84
-6 -120 -8 -36 -2 -96 -7 -135 -10 -167 -14 -224 -18 -290 -21 -38 -2 -70 -4
-70 -5 0 -2 -16 -3 -201 -14 l-111 -7 0 23 c-1 13 -1 37 -2 53 l-1 30 -297 -1
c-327 -2 -402 -6 -498 -28 -5 -1 -26 -6 -45 -10 -34 -8 -140 -41 -170 -53 -8
-3 -21 -7 -28 -9 -7 -1 -59 -25 -115 -52 -199 -97 -384 -244 -513 -406 -35
-45 -68 -86 -72 -91 -5 -6 -21 -33 -37 -60 -16 -28 -33 -53 -38 -56 -5 -3 -8
-8 -7 -10 1 -2 -9 -29 -23 -60 -51 -116 -89 -243 -103 -349 -9 -67 -9 -244 0
-325 4 -33 10 -89 13 -125 8 -86 8 -629 0 -705 -4 -33 -9 -85 -12 -115 -12
-118 -30 -251 -41 -299 -3 -13 -7 -46 -10 -75 -2 -28 -6 -64 -9 -81 -10 -77
-21 -193 -31 -345 -3 -47 -7 -114 -10 -150 -8 -87 -13 -923 -6 -934 3 -5 6
-41 8 -80 6 -138 18 -296 29 -396 3 -30 8 -77 10 -105 2 -27 6 -66 9 -85 3
-19 8 -60 11 -90 4 -30 9 -68 12 -85 3 -16 7 -46 9 -65 2 -19 6 -51 9 -70 3
-19 8 -51 10 -70 3 -19 7 -46 10 -60 5 -25 8 -41 25 -142 6 -32 12 -68 15 -80
2 -13 7 -36 10 -53 3 -16 7 -39 10 -51 3 -12 7 -39 10 -60 3 -21 8 -46 11 -54
3 -8 7 -27 9 -42 2 -15 8 -44 14 -65 6 -21 13 -51 15 -68 3 -16 24 -104 46
-195 23 -91 43 -172 44 -180 2 -8 11 -42 20 -75 9 -33 19 -68 21 -78 2 -10 7
-27 10 -37 3 -10 8 -27 10 -37 2 -10 18 -65 35 -123 18 -58 34 -112 35 -120 2
-8 4 -16 5 -17 2 -2 3 -6 4 -10 1 -5 13 -42 26 -83 13 -41 24 -77 25 -80 1 -3
4 -12 7 -20 20 -56 80 -238 83 -252 2 -9 9 -26 15 -37 6 -12 9 -21 6 -21 -2 0
9 -32 25 -71 16 -39 29 -76 29 -81 0 -5 6 -24 14 -41 7 -18 19 -45 25 -62 6
-16 16 -43 22 -60 7 -16 13 -34 14 -40 3 -11 158 -401 180 -450 7 -16 22 -51
34 -77 11 -26 21 -50 21 -53 0 -3 8 -24 19 -48 10 -23 33 -78 51 -122 18 -44
40 -98 50 -120 10 -22 21 -51 25 -65 4 -14 13 -38 20 -55 29 -68 97 -241 100
-255 2 -8 20 -58 40 -110 20 -52 38 -103 40 -112 2 -9 9 -26 15 -37 6 -12 8
-21 4 -21 -3 0 -2 -6 4 -12 13 -17 164 -470 236 -708 31 -102 61 -199 66 -217
6 -18 13 -40 14 -50 2 -10 11 -45 20 -78 10 -33 18 -64 19 -70 2 -5 6 -16 10
-22 5 -7 6 -13 3 -13 -3 0 1 -18 9 -40 8 -22 12 -40 10 -40 -2 0 1 -15 6 -32
6 -18 17 -60 26 -93 8 -33 16 -67 18 -75 10 -38 27 -107 30 -125 3 -11 9 -38
14 -60 11 -47 23 -96 26 -110 22 -99 38 -177 42 -205 3 -19 9 -37 14 -38 5 -2
7 -8 3 -13 -5 -8 0 -39 22 -139 7 -32 10 -53 19 -115 4 -27 11 -68 15 -90 5
-22 12 -62 16 -90 3 -27 8 -54 11 -58 3 -4 7 -31 9 -60 2 -29 6 -65 9 -81 3
-15 8 -49 11 -75 3 -25 7 -57 9 -71 11 -86 18 -139 21 -165 2 -16 6 -56 9 -88
3 -32 7 -70 9 -85 3 -15 8 -63 11 -107 3 -44 8 -109 11 -145 20 -261 26 -491
35 -1215 0 -11 -3 -119 -6 -240 -4 -121 -8 -259 -9 -307 0 -49 -5 -88 -9 -88
-4 0 -3 -8 2 -19 6 -10 7 -21 4 -25 -4 -3 -8 -37 -9 -74 -1 -37 -5 -103 -8
-147 -3 -44 -8 -116 -11 -160 -3 -44 -7 -106 -10 -137 -3 -31 -8 -81 -10 -110
-2 -29 -7 -78 -10 -108 -11 -106 -15 -145 -20 -205 -3 -33 -8 -71 -10 -85 -2
-14 -7 -52 -10 -85 -3 -33 -7 -69 -9 -81 -2 -11 -7 -45 -10 -75 -4 -30 -8 -67
-11 -84 -2 -16 -7 -54 -10 -84 -3 -30 -8 -57 -10 -61 -3 -4 -7 -31 -9 -61 -3
-30 -8 -65 -11 -79 -2 -13 -7 -42 -10 -65 -10 -67 -15 -99 -21 -127 -3 -15 -7
-39 -9 -55 -2 -15 -6 -44 -10 -63 -9 -55 -25 -143 -29 -166 -2 -12 -7 -37 -10
-55 -3 -19 -8 -44 -10 -55 -2 -12 -7 -37 -10 -55 -3 -19 -10 -59 -16 -89 -6
-30 -13 -66 -16 -80 -2 -14 -12 -56 -20 -95 -9 -38 -18 -83 -21 -100 -3 -16
-9 -38 -15 -49 -7 -14 -7 -17 2 -11 9 6 9 3 2 -12 -6 -10 -13 -39 -17 -63 -4
-25 -9 -48 -12 -52 -2 -5 -7 -20 -9 -35 -3 -14 -12 -53 -20 -87 -8 -34 -17
-72 -20 -86 -2 -14 -14 -61 -25 -105 -12 -44 -22 -87 -24 -96 -2 -10 -20 -79
-40 -155 -21 -77 -39 -146 -40 -154 -2 -8 -4 -17 -6 -20 -1 -3 -3 -9 -4 -15
-2 -5 -4 -12 -5 -15 -1 -3 -3 -12 -5 -20 -4 -20 -59 -211 -78 -273 -9 -26 -16
-51 -16 -55 -1 -9 -50 -172 -58 -192 -8 -21 -14 -41 -20 -72 -3 -16 -8 -28
-12 -28 -4 0 -7 -8 -8 -18 -1 -10 -34 -112 -73 -227 -39 -116 -72 -214 -74
-220 -2 -5 -6 -17 -9 -25 -19 -44 -49 -190 -55 -262 -17 -201 57 -373 201
-465 52 -34 107 -60 217 -102 47 -18 99 -39 115 -46 53 -23 315 -125 320 -125
3 0 24 -9 48 -19 59 -26 260 -103 472 -181 28 -10 59 -21 70 -26 11 -4 25 -8
30 -10 6 -1 77 -25 158 -53 82 -28 159 -53 173 -55 13 -3 28 -7 34 -11 5 -3
18 -8 27 -10 10 -3 52 -14 93 -25 148 -42 185 -52 205 -55 24 -4 46 -9 100
-23 22 -6 58 -13 80 -17 22 -3 47 -7 55 -10 8 -2 31 -6 50 -9 19 -3 46 -8 60
-11 14 -3 39 -7 55 -10 17 -2 46 -6 65 -9 56 -9 110 -15 180 -21 36 -3 74 -8
86 -10 91 -19 662 -27 869 -12 160 11 271 22 329 32 22 4 51 8 65 9 15 2 48 6
76 11 27 4 56 9 65 10 8 1 26 4 40 8 14 3 39 9 55 11 61 10 181 34 207 42 10
3 30 7 44 10 41 7 275 72 324 89 24 8 45 13 48 10 3 -3 10 -1 16 4 8 6 182 68
216 76 8 3 44 16 65 26 11 4 27 10 35 11 8 2 17 5 20 8 3 3 43 20 90 39 161
65 518 238 580 281 14 9 35 21 48 24 12 4 22 12 22 17 0 5 5 9 10 9 22 0 160
102 219 161 108 108 154 235 145 404 -4 75 -11 150 -14 150 -1 0 -10 36 -20
80 -10 44 -25 107 -35 140 -18 64 -18 64 -29 110 -4 17 -10 37 -13 45 -3 8 -7
22 -8 30 -1 8 -12 51 -25 95 -12 44 -24 89 -26 100 -10 42 -13 50 -14 50 -2 0
-10 34 -15 60 -2 11 -4 20 -5 20 -1 0 -3 7 -5 15 -2 8 -9 35 -15 60 -7 25 -14
52 -17 60 -3 8 -7 22 -8 30 -2 8 -10 42 -19 75 -23 82 -97 367 -101 385 -2 8
-4 16 -5 18 -3 3 -6 12 -15 57 -4 22 -10 44 -13 50 -3 5 -7 16 -8 25 -2 8 -12
53 -24 100 -12 47 -25 101 -29 120 -32 138 -64 267 -68 280 -3 8 -8 24 -9 35
-8 46 -65 293 -75 323 -6 19 -8 36 -6 39 3 3 2 16 -4 30 -5 13 -12 38 -15 56
-3 18 -7 37 -8 42 -4 14 -17 76 -20 95 -1 8 -5 29 -9 45 -4 17 -9 41 -11 55
-3 14 -14 75 -26 135 -12 61 -23 119 -25 130 -2 11 -6 34 -9 50 -17 96 -19
110 -30 182 -2 16 -9 55 -14 88 -6 33 -13 78 -16 100 -3 22 -8 51 -11 65 -6
29 -15 97 -20 155 -2 22 -6 54 -9 70 -8 52 -15 108 -21 160 -2 28 -7 73 -11
100 -3 28 -7 73 -10 100 -2 28 -5 66 -8 85 -2 19 -7 76 -11 125 -3 50 -8 106
-10 125 -2 19 -6 87 -10 150 -4 63 -9 131 -10 150 -24 324 -24 1277 0 1580 3
36 7 103 10 150 5 101 16 241 31 390 3 36 7 84 9 107 2 23 6 65 10 95 3 29 8
69 11 88 2 19 6 60 9 90 3 30 8 66 11 80 2 14 6 43 9 65 5 53 14 120 19 154 3
14 8 46 11 71 3 25 10 70 15 100 5 30 12 71 15 90 3 19 7 46 10 60 2 14 14 79
25 145 11 66 22 131 25 145 14 72 19 97 21 115 1 11 3 20 4 20 3 0 15 59 26
130 3 22 8 44 11 48 3 5 7 23 10 40 2 18 11 58 19 91 8 32 13 61 10 63 -3 3
-1 14 5 25 6 11 13 32 15 46 3 15 14 63 25 107 10 44 21 90 23 102 3 12 16 66
31 120 35 128 36 133 41 166 2 16 7 34 11 40 4 7 8 17 9 22 3 13 39 146 59
215 9 30 20 69 25 85 20 73 80 265 100 320 11 33 22 68 25 78 9 37 49 153 57
163 4 6 5 14 2 17 -4 4 1 18 10 32 9 14 14 25 11 25 -3 0 1 14 10 30 9 17 12
30 8 30 -4 0 -2 5 5 12 7 7 12 20 12 30 0 10 4 26 9 36 9 15 88 222 95 247 2
6 8 23 14 38 7 16 12 31 12 34 0 3 6 19 14 36 27 58 106 265 106 276 0 6 5 11
10 11 6 0 10 6 10 13 0 11 77 201 115 282 7 17 46 111 85 210 40 99 76 184 81
189 5 6 9 20 9 33 0 13 5 23 10 23 6 0 9 3 8 8 -1 4 4 23 11 42 8 19 15 44 18
54 2 11 7 24 12 30 4 6 21 47 36 91 16 44 33 91 38 105 20 51 99 276 102 290
2 8 9 29 15 45 6 17 13 37 15 45 2 8 17 56 33 105 42 129 72 228 78 260 3 16
8 33 12 39 3 6 7 16 8 22 1 7 18 70 37 140 32 118 54 205 62 244 2 8 8 34 14
58 7 23 9 47 6 52 -3 5 -1 11 4 14 4 3 12 25 16 48 4 24 9 48 10 53 2 6 6 25
9 43 4 18 13 63 20 100 8 37 17 84 20 106 4 21 8 41 10 45 2 3 7 31 10 62 4
31 9 67 11 80 3 13 7 42 10 64 3 22 7 47 9 55 3 8 7 42 11 75 3 33 8 74 10 90
3 17 7 47 10 69 3 21 8 43 12 49 4 6 1 7 -7 2 -9 -5 -11 -4 -6 3 7 11 10 35
21 167 10 120 14 203 19 427 3 119 6 220 7 225 1 4 0 10 -1 13 -1 3 -3 57 -5
120 -3 109 -8 194 -21 410 -4 52 -7 116 -8 143 0 26 -5 47 -10 47 -4 0 -3 6 3
13 6 8 8 16 5 19 -3 3 -8 77 -12 164 -13 331 -3 784 21 959 3 22 9 65 13 95 3
30 8 64 10 75 3 11 7 35 10 54 8 51 13 71 18 89 3 9 8 33 10 52 11 78 94 356
137 455 17 41 31 81 38 110 11 53 6 258 -8 298 -7 21 -14 44 -15 50 -6 29 -18
73 -23 87 -4 8 -7 17 -8 20 -37 151 -162 436 -231 527 -13 17 -24 35 -24 38 0
8 -53 79 -62 83 -5 2 -8 8 -8 12 0 22 -195 220 -280 284 -202 153 -450 262
-685 302 -16 2 -41 7 -55 11 -14 3 -36 7 -50 10 -32 5 -537 13 -542 8z m218
-510 c22 -10 53 -23 69 -30 17 -7 50 -22 75 -33 162 -71 213 -92 225 -92 8 0
15 -4 15 -10 0 -5 6 -10 14 -10 8 0 45 -14 83 -32 37 -17 70 -32 73 -32 3 -1
31 -14 63 -28 31 -15 61 -28 65 -28 4 -1 14 -7 22 -14 8 -6 35 -22 60 -35 25
-13 64 -37 88 -53 24 -15 45 -28 47 -28 12 0 140 -121 180 -171 23 -27 85
-150 90 -176 2 -10 4 -18 5 -18 1 0 3 -7 5 -15 8 -33 15 -61 21 -82 15 -59 11
-265 -7 -348 -11 -47 -21 -95 -23 -106 -2 -12 -9 -31 -15 -43 -7 -11 -9 -21
-5 -21 3 0 0 -7 -7 -16 -7 -9 -14 -22 -15 -29 -4 -27 -79 -165 -133 -245 -63
-92 -95 -130 -186 -224 -99 -102 -180 -206 -239 -309 -31 -54 -56 -103 -56
-110 0 -7 -4 -17 -9 -23 -9 -10 -68 -183 -75 -224 -3 -14 -8 -36 -11 -50 -41
-172 -55 -478 -40 -885 3 -106 8 -532 6 -545 -1 -3 -4 -106 -7 -230 -8 -357
-9 -378 -16 -386 -4 -3 -3 -14 2 -24 5 -10 7 -19 5 -22 -2 -2 -7 -46 -10 -98
-3 -52 -7 -125 -10 -161 -3 -36 -8 -104 -11 -150 -3 -46 -7 -109 -10 -139 -2
-30 -7 -77 -9 -105 -7 -85 -25 -276 -31 -335 -2 -19 -6 -61 -9 -92 -2 -31 -7
-70 -10 -85 -4 -26 -11 -77 -20 -163 -9 -90 -50 -235 -84 -299 -7 -12 -8 -21
-4 -21 4 0 3 -4 -2 -8 -6 -4 -19 -25 -30 -47 -34 -69 -125 -202 -171 -252 -24
-26 -44 -51 -44 -57 0 -5 -2 -7 -5 -4 -3 3 -22 -11 -43 -31 -74 -70 -213 -122
-330 -124 -113 -2 -143 8 -215 75 -37 33 -67 66 -67 74 0 8 -4 14 -9 14 -15 0
-64 121 -77 190 -10 62 -11 80 -4 85 4 2 6 16 4 30 -1 14 2 54 6 88 5 34 12
89 15 122 6 58 8 74 19 140 5 33 13 94 21 170 3 28 8 57 10 65 2 8 7 35 10 60
3 25 8 56 10 70 3 14 7 45 10 70 3 25 8 53 11 63 3 9 8 39 10 65 7 67 12 107
14 107 1 0 3 14 5 30 1 17 6 46 10 65 4 19 8 51 10 70 2 19 6 49 9 65 2 17 8
49 11 72 3 23 8 57 11 75 2 18 7 53 10 78 3 25 7 56 9 70 6 47 18 145 20 165
1 11 5 56 9 100 5 44 10 96 12 115 5 52 16 179 19 230 2 25 4 45 5 45 1 0 3
20 5 45 5 85 15 215 20 245 3 17 7 59 10 95 3 36 8 90 11 120 3 30 7 82 9 115
2 33 4 60 5 60 2 0 9 126 14 237 2 53 7 102 11 108 3 5 1 10 -5 10 -6 0 -8 5
-4 12 9 14 12 458 4 458 -3 0 -6 30 -6 68 -2 75 -11 204 -18 242 -2 14 -7 43
-10 65 -11 85 -18 123 -37 195 -11 41 -21 82 -23 90 -25 100 -157 367 -187
378 -5 2 -9 8 -9 14 0 30 -240 278 -269 278 -5 0 -11 4 -13 8 -4 11 -102 77
-107 73 -2 -1 -7 2 -10 7 -9 14 -168 88 -241 111 -164 54 -278 70 -470 66 -80
-2 -167 -8 -195 -14 -27 -6 -61 -13 -75 -15 -14 -3 -25 -5 -25 -6 0 -1 -8 -3
-17 -5 -39 -7 -155 -48 -215 -75 -35 -16 -63 -26 -63 -22 0 4 -4 3 -8 -3 -4
-5 -25 -19 -47 -30 -34 -17 -90 -51 -159 -97 -33 -22 -149 -118 -191 -157 -81
-76 -169 -174 -290 -321 -38 -47 -74 -90 -80 -97 -5 -6 -20 -24 -32 -40 -54
-70 -167 -196 -257 -285 -148 -148 -306 -247 -446 -284 -63 -16 -210 -22 -231
-9 -6 4 -25 9 -42 12 -30 4 -196 78 -207 92 -3 3 -32 24 -65 46 -50 33 -321
294 -390 376 -12 13 -43 51 -70 84 -28 33 -52 62 -55 65 -3 3 -44 52 -90 110
-47 58 -87 107 -90 110 -3 3 -32 39 -64 80 -33 41 -67 82 -75 91 -9 9 -27 30
-40 48 -17 21 -30 30 -40 25 -9 -3 -20 -7 -26 -8 -5 -2 -21 -7 -35 -13 -78
-33 -115 -48 -122 -49 -4 -1 -11 -3 -15 -4 -5 -1 -11 -2 -15 -1 -5 0 -9 -5 -9
-12 -1 -6 -3 -21 -4 -32 -18 -133 -28 -415 -14 -415 5 0 9 -7 9 -15 0 -14 26
-64 59 -115 9 -14 21 -33 26 -42 6 -9 29 -44 53 -77 23 -33 42 -65 42 -70 0
-5 3 -11 8 -13 4 -1 23 -23 42 -48 19 -25 42 -54 50 -64 84 -107 285 -307 376
-372 92 -66 135 -94 144 -94 5 0 10 -3 10 -7 0 -5 33 -24 73 -43 39 -19 74
-37 77 -40 3 -3 10 -6 15 -7 6 -2 47 -16 91 -32 72 -26 150 -46 259 -65 41 -8
220 -8 275 -1 42 5 108 16 120 20 3 1 23 5 45 10 38 8 155 48 220 76 17 7 32
13 35 13 38 7 310 181 374 239 20 18 48 42 63 54 59 45 225 217 303 312 19 24
40 48 45 54 6 7 46 59 90 117 112 148 231 276 314 338 20 15 38 29 41 33 6 6
133 83 140 85 3 0 26 10 52 22 42 19 102 38 148 47 8 2 15 4 15 5 0 15 261 12
325 -3 58 -14 81 -21 125 -34 232 -68 438 -218 570 -413 134 -198 202 -470
173 -690 -4 -30 -10 -84 -14 -120 -3 -36 -8 -67 -9 -70 -2 -3 -6 -37 -10 -75
-8 -75 -11 -105 -19 -145 -2 -14 -7 -47 -10 -75 -3 -27 -8 -59 -10 -70 -2 -11
-7 -42 -10 -70 -11 -73 -17 -115 -22 -139 -2 -11 -7 -41 -10 -66 -3 -25 -8
-54 -10 -65 -2 -11 -7 -40 -10 -65 -3 -25 -7 -52 -9 -60 -26 -138 -35 -192
-39 -225 -4 -35 -10 -71 -30 -175 -3 -14 -7 -41 -10 -60 -3 -19 -10 -57 -15
-85 -5 -27 -12 -70 -16 -95 -3 -25 -8 -52 -10 -60 -2 -8 -7 -33 -10 -55 -3
-23 -8 -52 -10 -65 -3 -14 -8 -38 -10 -55 -13 -74 -25 -143 -30 -175 -3 -19
-10 -60 -15 -90 -5 -30 -12 -75 -15 -100 -3 -25 -10 -67 -15 -95 -5 -27 -12
-66 -14 -85 -3 -19 -7 -46 -11 -60 -3 -14 -7 -43 -10 -65 -2 -22 -6 -49 -8
-60 -3 -11 -8 -45 -12 -75 -3 -30 -8 -66 -10 -80 -2 -14 -7 -50 -10 -80 -3
-30 -8 -71 -10 -90 -5 -44 -17 -186 -21 -265 -4 -86 -4 -362 1 -415 2 -25 6
-72 9 -105 7 -77 10 -94 37 -225 15 -74 15 -73 22 -90 3 -8 13 -36 21 -61 63
-195 185 -351 346 -442 42 -23 160 -69 160 -62 0 3 8 2 18 -4 35 -18 120 -26
277 -25 88 1 176 4 195 7 19 4 53 9 75 12 22 3 47 7 55 9 8 1 33 6 55 11 22 4
47 9 55 11 13 2 234 64 293 81 13 4 16 1 11 -13 -4 -11 -11 -23 -15 -29 -4 -5
-8 -13 -8 -18 -2 -23 -15 -64 -25 -76 -6 -8 -10 -17 -9 -20 3 -6 -22 -92 -37
-126 -11 -25 -33 -95 -36 -115 -2 -8 -7 -23 -12 -35 -5 -11 -17 -45 -27 -75
-9 -30 -19 -62 -23 -70 -3 -8 -6 -17 -7 -20 0 -3 -30 -90 -65 -195 -35 -104
-63 -193 -62 -197 1 -5 -2 -8 -8 -8 -6 0 -9 -3 -8 -7 1 -5 -11 -48 -27 -98
-16 -49 -28 -93 -27 -97 1 -5 -2 -8 -6 -8 -5 0 -9 -6 -9 -12 -1 -11 -133 -414
-150 -458 -3 -8 -7 -19 -9 -25 -1 -5 -27 -86 -58 -180 -31 -93 -58 -177 -60
-185 -2 -8 -6 -24 -10 -35 -25 -65 -34 -91 -35 -97 -2 -9 -4 -16 -26 -88 -10
-30 -18 -59 -20 -65 -1 -5 -7 -23 -13 -38 -7 -16 -12 -32 -12 -37 0 -5 -6 -29
-14 -52 -21 -63 -78 -249 -80 -262 -2 -6 -9 -31 -16 -56 -16 -52 -14 -47 -36
-125 -9 -33 -17 -64 -18 -70 -1 -5 -5 -16 -10 -23 -4 -7 -5 -16 -2 -19 3 -3 1
-12 -5 -20 -6 -7 -9 -13 -6 -13 3 0 1 -15 -4 -32 -6 -18 -12 -40 -14 -48 -2
-8 -11 -44 -20 -80 -9 -36 -18 -78 -21 -95 -4 -16 -10 -38 -15 -47 -5 -10 -8
-18 -5 -18 3 0 0 -15 -5 -32 -5 -18 -12 -45 -14 -60 -3 -16 -12 -58 -21 -95
-9 -38 -17 -80 -19 -95 -2 -15 -6 -35 -9 -45 -3 -10 -8 -31 -11 -48 -2 -16 -7
-41 -10 -55 -3 -14 -12 -61 -20 -105 -8 -44 -17 -93 -20 -110 -3 -16 -8 -41
-10 -55 -2 -14 -6 -38 -9 -55 -2 -16 -8 -50 -11 -75 -8 -47 -11 -68 -20 -110
-2 -14 -7 -47 -10 -75 -3 -27 -8 -63 -11 -80 -2 -16 -6 -46 -8 -65 -2 -19 -9
-71 -14 -115 -14 -99 -21 -164 -27 -235 -3 -30 -7 -72 -10 -93 -4 -22 -8 -67
-10 -101 -5 -72 -14 -207 -20 -291 -14 -192 -20 -407 -19 -780 0 -429 4 -568
29 -905 4 -47 8 -107 10 -135 5 -65 15 -172 20 -210 2 -16 7 -57 10 -90 3 -33
8 -74 11 -92 3 -17 7 -51 10 -75 9 -80 11 -103 18 -143 3 -22 9 -62 12 -90 3
-27 8 -59 10 -70 3 -11 7 -36 10 -55 24 -151 35 -218 38 -238 7 -35 58 -304
62 -332 3 -14 7 -33 10 -43 3 -10 7 -31 9 -48 3 -17 7 -38 9 -48 3 -9 8 -29
10 -46 3 -16 17 -84 31 -150 14 -65 28 -133 31 -150 6 -31 6 -33 17 -75 4 -14
9 -36 11 -50 2 -14 16 -79 31 -145 15 -66 28 -124 30 -130 1 -5 5 -21 8 -35 3
-14 15 -68 27 -120 12 -52 30 -133 42 -180 11 -47 22 -96 24 -110 6 -33 12
-64 13 -67 7 -21 55 -224 65 -278 5 -24 46 -198 51 -215 1 -4 16 -74 30 -138
3 -12 7 -30 9 -40 38 -163 108 -479 111 -502 1 -8 4 -22 7 -30 5 -13 32 -144
44 -210 2 -14 7 -38 11 -55 4 -16 8 -34 9 -40 1 -5 7 -35 13 -65 18 -93 8
-241 -24 -335 -59 -177 -158 -283 -349 -375 -36 -18 -69 -36 -72 -41 -3 -5 -9
-7 -14 -4 -5 3 -11 1 -15 -5 -4 -6 -11 -8 -16 -5 -5 4 -9 3 -9 -2 0 -4 -21
-16 -48 -26 -26 -11 -56 -23 -67 -28 -41 -18 -215 -77 -215 -73 0 3 -9 0 -21
-6 -11 -6 -28 -13 -37 -15 -9 -2 -66 -18 -127 -35 -60 -17 -119 -32 -130 -34
-11 -2 -20 -4 -20 -6 0 -1 -9 -3 -20 -4 -11 -2 -33 -6 -50 -10 -56 -12 -80
-17 -110 -21 -16 -3 -40 -7 -52 -10 -13 -3 -31 -7 -42 -9 -10 -2 -36 -7 -57
-10 -22 -4 -67 -11 -102 -17 -34 -6 -69 -9 -77 -5 -8 3 -15 2 -15 -3 0 -4 -6
-8 -12 -9 -7 0 -33 -3 -58 -6 -25 -3 -65 -8 -90 -10 -25 -3 -67 -8 -95 -11
-27 -3 -72 -7 -100 -9 -27 -2 -84 -7 -125 -10 -197 -17 -661 -23 -855 -11
-144 8 -233 15 -291 21 -32 4 -72 8 -89 9 -16 2 -32 4 -35 5 -3 1 -9 2 -13 1
-5 -1 -59 6 -120 15 -62 9 -125 18 -142 20 -16 2 -41 7 -55 10 -25 7 -39 9
-92 15 -16 2 -28 6 -28 9 0 3 -12 6 -27 6 -16 1 -75 14 -132 28 -57 15 -114
28 -125 31 -12 2 -21 4 -21 5 0 1 -8 3 -17 6 -28 6 -42 10 -58 17 -21 8 -124
41 -130 42 -25 3 -170 61 -170 67 0 5 -4 7 -8 4 -15 -9 -274 124 -386 198 -61
41 -144 105 -184 143 l-72 68 25 110 c14 61 27 119 30 130 2 11 4 21 6 23 5 6
21 101 18 104 -1 2 2 12 8 23 6 11 14 37 17 59 4 21 8 42 11 46 3 4 7 25 11
46 3 22 9 53 14 69 5 17 12 44 16 60 4 17 8 32 9 35 1 3 5 21 9 40 4 19 26
109 48 200 22 91 42 174 44 185 5 23 3 16 43 185 16 69 39 166 51 215 12 50
24 101 26 115 3 14 10 43 16 65 5 22 12 51 14 65 3 14 7 33 10 42 3 9 7 25 9
35 2 10 9 41 15 68 6 28 14 59 16 70 3 11 7 31 9 45 6 35 13 69 19 88 3 9 8
33 11 52 3 19 11 55 16 80 14 61 18 80 25 115 3 17 16 84 30 150 13 65 26 133
29 150 2 16 6 39 8 50 3 11 8 40 12 65 4 25 9 54 11 65 2 11 9 49 15 84 5 36
12 67 14 71 2 4 5 26 6 49 2 23 7 45 11 47 5 3 6 9 3 14 -3 4 0 30 5 56 5 27
12 69 14 94 5 55 16 136 22 170 3 14 7 39 8 55 2 17 7 55 10 85 4 30 9 73 11
95 2 22 5 40 5 40 1 0 4 16 5 35 2 19 6 60 10 90 3 30 8 75 10 100 3 25 7 68
10 95 10 107 14 142 20 205 13 140 21 236 31 390 9 144 9 144 17 158 5 6 4 12
0 12 -5 0 -8 15 -6 32 17 174 27 540 27 973 0 450 -7 663 -30 980 -4 55 -7
124 -8 152 -1 29 -3 53 -6 53 -3 0 -6 24 -7 53 0 28 -4 77 -7 107 -3 30 -7 84
-10 119 -3 35 -8 80 -10 100 -8 54 -16 122 -20 161 -2 19 -6 53 -10 75 -3 22
-8 60 -11 85 -10 98 -16 136 -21 160 -3 14 -8 36 -9 50 -2 14 -7 48 -11 75 -4
28 -9 57 -10 65 -10 78 -21 140 -24 150 -3 6 -3 10 -14 80 -5 30 -10 62 -12
70 -2 8 -8 34 -14 57 -5 24 -9 46 -8 50 1 5 -2 19 -5 33 -4 14 -9 36 -11 50
-3 14 -8 36 -11 50 -3 14 -8 34 -10 45 -2 11 -6 31 -9 45 -4 14 -9 38 -11 53
-3 15 -12 56 -21 90 -8 34 -17 71 -19 82 -2 11 -6 31 -9 45 -4 14 -8 34 -11
45 -13 59 -97 380 -101 387 -3 4 -7 21 -10 36 -3 15 -7 34 -11 42 -3 8 -7 22
-9 30 -3 16 -23 86 -32 110 -3 8 -6 20 -8 27 -3 18 -61 205 -71 233 -3 8 -7
20 -8 25 -7 26 -112 332 -152 440 -34 92 -131 344 -142 370 -5 11 -19 45 -31
75 -33 85 -50 127 -74 182 -9 20 -16 39 -16 43 0 4 -6 21 -14 38 -27 61 -86
213 -86 221 0 4 -6 22 -14 39 -8 18 -33 82 -56 142 -23 61 -55 144 -71 185
-16 41 -29 80 -29 86 0 6 -6 24 -14 40 -21 42 -96 254 -90 254 3 0 -2 7 -10
16 -9 8 -14 20 -11 24 3 5 1 17 -4 27 -15 27 -71 193 -65 193 3 0 -1 10 -8 23
-6 12 -13 27 -14 32 -2 6 -15 46 -29 90 -48 146 -146 460 -160 515 -2 8 -13
47 -24 85 -37 131 -85 313 -96 365 -1 8 -8 35 -15 60 -7 25 -14 56 -16 70 -3
14 -9 39 -14 55 -7 27 -33 140 -45 203 -2 13 -6 31 -9 40 -3 9 -8 31 -11 47
-2 17 -7 41 -10 55 -17 83 -32 169 -40 225 -2 17 -7 41 -10 55 -4 14 -8 36
-10 50 -2 14 -6 45 -9 70 -4 25 -10 70 -16 100 -10 63 -17 114 -25 185 -3 28
-8 66 -10 85 -3 19 -7 60 -10 90 -3 30 -8 75 -10 100 -6 50 -12 134 -22 290
-14 230 -7 838 12 1030 3 25 7 70 10 100 3 30 8 78 11 105 4 28 8 61 9 75 9
86 17 148 22 165 3 11 7 36 8 55 2 19 6 51 10 70 4 19 8 44 9 55 1 21 20 58
27 55 5 -2 11 0 114 36 44 15 86 27 93 27 6 0 12 3 12 7 0 4 6 7 13 7 6 1 72
21 144 46 l132 44 -31 49 c-17 27 -33 51 -37 54 -7 6 -60 85 -77 115 -6 11
-21 38 -34 60 -40 70 -104 200 -115 235 -1 3 -27 59 -59 125 -71 148 -127 289
-142 357 -3 13 -7 34 -11 48 -14 64 -9 132 12 185 24 59 97 179 142 235 38 47
246 253 317 315 32 28 68 59 81 70 12 11 48 43 81 71 32 29 78 70 101 92 53
50 106 63 198 48 17 -3 62 -10 100 -16 39 -6 81 -13 95 -15 14 -2 46 -6 72 -9
26 -3 62 -8 80 -10 46 -7 130 -15 213 -21 39 -3 95 -8 125 -10 236 -18 654
-23 990 -12 102 3 185 7 185 7 0 1 29 3 65 5 86 5 262 17 415 30 28 2 82 6
120 10 39 3 86 7 105 10 19 3 62 7 95 10 33 3 74 7 90 9 17 3 57 7 90 11 80 8
131 13 185 20 24 2 67 7 95 10 111 13 132 15 180 22 28 3 66 7 85 9 19 1 35 3
35 4 0 1 11 3 25 4 77 8 167 19 180 21 8 2 47 6 85 10 39 4 77 9 86 10 9 2 38
6 65 9 27 3 74 8 104 12 30 4 73 8 95 10 22 1 40 3 40 4 0 1 18 4 40 6 22 2
63 6 90 9 28 3 70 8 95 10 43 4 78 8 200 21 136 14 262 25 340 29 30 2 55 4
55 5 0 1 23 3 50 5 136 7 264 18 300 26 67 14 267 4 311 -16z"/>
</g>
</svg>
